<svg viewBox="0 0 64 64" fill="none" xmlns="http://www.w3.org/2000/svg">
  <defs>
    <linearGradient id="bg" x1="0" y1="0" x2="64" y2="64" gradientUnits="userSpaceOnUse">
      <stop stop-color="#22c55e"/>
      <stop offset="1" stop-color="#d946ef"/>
    </linearGradient>
  </defs>
  <rect width="64" height="64" rx="16" fill="url(#bg)"/>
  <path fill-rule="evenodd" fill="white" d="M31.4 50.19H13.0V13.81H31.4Q40.47 13.81 45.73 18.62Q51.0 23.42 51.0 32.0Q51.0 40.58 45.73 45.38Q40.47 50.19 31.4 50.19ZM31.4 22.99H23.21V41.01H31.4Q34.12 41.01 35.56 40.77Q36.99 40.52 38.13 39.6Q39.27 38.68 39.68 36.89Q40.09 35.09 40.09 32.0Q40.09 28.91 39.68 27.11Q39.27 25.32 38.13 24.4Q36.99 23.48 35.56 23.23Q34.12 22.99 31.4 22.99Z"/>
</svg>
